<svg xmlns="http://www.w3.org/2000/svg" aria-hidden="true" overflow="hidden" style="position:absolute;width:0;height:0">
  <defs>
    <symbol id="icon-arrow_left" viewBox="0 0 38 32">
      <path d="M.625 17.218a2.134 2.134 0 0 1 0-3.017L14.201.625a2.134 2.134 0 0 1 3.017 3.017L5.15 15.71l12.068 12.068a2.134 2.134 0 0 1-3.017 3.017L.625 17.219zm37.267.625H2.133v-4.267h35.759v4.267z"/>
    </symbol>
    <symbol id="icon-arrow_right" viewBox="0 0 38 32">
      <path d="M37.267 14.201a2.134 2.134 0 0 1 0 3.017L23.69 30.794a2.134 2.134 0 0 1-3.017-3.017l12.068-12.068L20.673 3.641A2.134 2.134 0 0 1 23.69.624L37.267 14.2zm-1.508 3.642H0v-4.267h35.759v4.267z"/>
    </symbol>
    <symbol id="icon-crown-light_icon" viewBox="0 0 32 32">
      <path d="M29.687 10.326c-.253-.229-.559-.376-.883-.425s-.655.003-.954.15l-6.312 3.08a.215.215 0 0 1-.184.021.243.243 0 0 1-.142-.13l-3.688-7.287c-.15-.301-.37-.553-.638-.728s-.575-.268-.887-.268c-.312 0-.618.092-.887.268s-.489.427-.638.728l-3.687 7.287a.239.239 0 0 1-.142.13c-.03.01-.062.014-.094.01s-.062-.014-.09-.031l-6.313-3.08c-.298-.149-.628-.202-.953-.155s-.631.194-.883.423-.442.532-.546.873a2.112 2.112 0 0 0-.043 1.059l3.188 14.891c.054.252.154.489.293.697s.316.383.519.513a1.585 1.585 0 0 0 1.363.206 30.563 30.563 0 0 1 17.812-.014 1.602 1.602 0 0 0 1.367-.186 1.8 1.8 0 0 0 .524-.516c.141-.209.242-.447.297-.701l3.175-14.891c.079-.348.067-.713-.034-1.054s-.289-.643-.541-.871zm-.875 1.54-3.188 14.891a.321.321 0 0 1-.112.179.29.29 0 0 1-.2.028 31.912 31.912 0 0 0-18.625 0 .23.23 0 0 1-.197-.029.284.284 0 0 1-.116-.178L3.186 11.866a.324.324 0 0 1 .003-.124.288.288 0 0 1 .138-.189.235.235 0 0 1 .109-.03l.1.028 6.325 3.094c.399.198.851.222 1.266.069s.762-.472.972-.894l3.688-7.287a.26.26 0 0 1 .088-.106.22.22 0 0 1 .25 0 .248.248 0 0 1 .088.106L19.9 13.82c.21.422.557.742.972.894s.867.128 1.266-.069l6.325-3.094c.043-.021.09-.028.137-.021s.09.029.126.062c.037.032.064.075.08.124s.018.101.008.151zm-8.062 10.45c-.021.203-.109.391-.247.527s-.317.213-.503.215h-.075a35.646 35.646 0 0 0-7.85 0c-.197.023-.395-.041-.549-.177s-.254-.335-.276-.552c-.018-.218.043-.435.169-.605s.308-.278.506-.302a35.151 35.151 0 0 1 8.15 0c.196.024.375.131.501.297s.188.38.174.596z"/>
    </symbol>
    <symbol id="icon-facebook_icon" viewBox="0 0 19 32">
      <path d="M17.882.236A42.256 42.256 0 0 0 13.286 0c-5.09 0-8.253 3.242-8.253 8.461v3.543H.757a.756.756 0 0 0-.757.757v5.827a.756.756 0 0 0 .757.757h4.276v11.684a.756.756 0 0 0 .757.757h6.021a.756.756 0 0 0 .757-.757V19.345h4.262a.756.756 0 0 0 .75-.659l.752-5.827a.76.76 0 0 0-.438-.787.764.764 0 0 0-.312-.067h-5.014V9.04c0-1.468.295-2.081 2.131-2.081h3.086a.756.756 0 0 0 .757-.757V.988a.756.756 0 0 0-.659-.75zm-.855 5.207-2.331.002c-3.265 0-3.643 2.052-3.643 3.595v3.723a.754.754 0 0 0 .755.757h4.913l-.559 4.313h-4.353a.756.756 0 0 0-.757.757v11.681H6.545V18.59a.756.756 0 0 0-.757-.757H1.514v-4.314h4.274a.756.756 0 0 0 .757-.757V8.461c0-4.35 2.52-6.947 6.74-6.947 1.527 0 2.906.083 3.741.156v3.773z"/>
    </symbol>
    <symbol id="icon-game-icons_materials-science" viewBox="0 0 32 32">
      <path d="M16.061 1.4c-1.05 0-2.031.478-2.867 1.261s-1.551 1.874-2.148 3.195c-.125.277-.244.564-.359.861a16.087 16.087 0 0 0-.927-.12 13.895 13.895 0 0 0-1.054-.066c-1.026-.024-1.964.08-2.786.329-1.096.332-2 .943-2.525 1.852s-.601 1.998-.341 3.113c.26 1.115.847 2.28 1.693 3.457.178.247.367.494.567.742-.196.242-.385.489-.566.741-.846 1.177-1.433 2.342-1.693 3.457s-.184 2.204.341 3.113c.525.909 1.429 1.52 2.525 1.852s2.398.407 3.841.263c.302-.03.611-.071.926-.12.112.291.231.579.359.863.596 1.321 1.312 2.412 2.148 3.195s1.817 1.261 2.867 1.261 2.031-.478 2.866-1.261 1.551-1.874 2.148-3.195c.128-.284.248-.572.359-.862.314.049.623.09.925.12 1.442.144 2.745.07 3.841-.263s2.001-.943 2.526-1.852c.525-.909.601-1.998.341-3.113s-.847-2.28-1.693-3.457c-.182-.252-.371-.5-.567-.741.196-.242.385-.489.567-.742.846-1.177 1.433-2.342 1.693-3.457s.184-2.204-.341-3.113c-.525-.909-1.429-1.52-2.525-1.852-.822-.249-1.76-.353-2.786-.329-.342.008-.694.03-1.055.066a16.8 16.8 0 0 0-.926.12c-.111-.29-.231-.577-.359-.861-.596-1.321-1.312-2.412-2.148-3.195s-1.817-1.261-2.866-1.261zm0 1.168c.7 0 1.387.308 2.068.946s1.331 1.603 1.882 2.823c.09.199.175.4.255.603a24.805 24.805 0 0 0-4.205 1.364 24.805 24.805 0 0 0-4.205-1.364c.083-.207.167-.409.255-.603.551-1.22 1.201-2.185 1.882-2.823s1.368-.946 2.068-.946zM8.337 7.696a12.707 12.707 0 0 1 1.309.062c.213.021.43.048.652.08a24.722 24.722 0 0 0-.921 4.324 24.81 24.81 0 0 0-3.284 2.96 13.294 13.294 0 0 1-.395-.524c-.781-1.087-1.292-2.133-1.504-3.041s-.135-1.657.215-2.264c.35-.607.96-1.047 1.853-1.318.586-.178 1.287-.273 2.077-.281zm15.448 0c.789.007 1.491.103 2.077.281.893.271 1.503.711 1.853 1.318s.427 1.355.215 2.264c-.212.909-.723 1.954-1.504 3.041-.128.177-.26.352-.395.524a24.81 24.81 0 0 0-3.284-2.96 24.72 24.72 0 0 0-.922-4.324c.221-.032.438-.059.651-.08a11.984 11.984 0 0 1 1.309-.062zm-3.12.353c.311.965.568 2.029.76 3.169a31.692 31.692 0 0 0-3.884-2.243 22.647 22.647 0 0 1 3.124-.926zm-9.208 0c.991.213 2.041.523 3.123.926a31.805 31.805 0 0 0-3.883 2.242 22.64 22.64 0 0 1 .76-3.168zm4.604 1.529c.95.419 1.915.906 2.877 1.462s1.867 1.147 2.705 1.761c.112 1.033.173 2.112.173 3.223s-.06 2.189-.172 3.222c-.838.614-1.743 1.205-2.705 1.761s-1.927 1.043-2.877 1.462c-.951-.419-1.916-.907-2.878-1.462s-1.866-1.147-2.704-1.76a29.94 29.94 0 0 1 0-6.446c.838-.614 1.743-1.205 2.705-1.761s1.926-1.043 2.877-1.462zm.079 1.757-3.344 2.064 3.344 2.064 3.344-2.064-3.344-2.064zm-6.923 2.446a31.648 31.648 0 0 0 0 4.484 22.675 22.675 0 0 1-2.364-2.242 22.675 22.675 0 0 1 2.364-2.242zm13.688 0c.89.736 1.683 1.49 2.363 2.242a22.76 22.76 0 0 1-2.363 2.242 31.611 31.611 0 0 0-.001-4.483zm-10.862.525v4.075l3.512 2.167v-4.075l-3.512-2.168zm8.191.002-3.511 2.167v4.073l3.511-2.167v-4.073zM6.091 16.923a24.74 24.74 0 0 0 3.284 2.96c.196 1.56.51 3.016.921 4.323-.221.032-.438.059-.65.08-1.331.133-2.493.053-3.386-.218s-1.502-.712-1.853-1.318c-.35-.607-.427-1.355-.215-2.264s.723-1.954 1.504-3.041c.128-.177.259-.352.395-.523zm19.939 0c.138.175.27.349.395.523.781 1.087 1.292 2.133 1.504 3.041s.135 1.657-.215 2.264c-.35.606-.96 1.047-1.853 1.318s-2.054.351-3.386.218a15.79 15.79 0 0 1-.65-.08c.412-1.308.725-2.764.921-4.324a24.794 24.794 0 0 0 3.283-2.959zm-4.605 3.905a22.655 22.655 0 0 1-.76 3.169 22.688 22.688 0 0 1-3.124-.926 32.057 32.057 0 0 0 3.884-2.242zm-10.727.001a32.168 32.168 0 0 0 3.883 2.242 22.635 22.635 0 0 1-3.123.926 22.503 22.503 0 0 1-.759-3.168zm5.398.053.043.026.042-.026h-.085zm-.035 2.861a24.725 24.725 0 0 0 4.206 1.364 14.57 14.57 0 0 1-.256.604c-.551 1.22-1.201 2.185-1.882 2.823s-1.368.946-2.068.946-1.387-.308-2.068-.946-1.331-1.603-1.882-2.823c-.09-.2-.175-.401-.256-.604a24.805 24.805 0 0 0 4.205-1.364z"/>
    </symbol>
    <symbol id="icon-instagram_icon" viewBox="0 0 32 32">
      <path d="M15.591 8.273A7.322 7.322 0 0 0 8.83 12.79a7.311 7.311 0 0 0 1.587 7.975 7.323 7.323 0 0 0 7.975 1.587 7.314 7.314 0 0 0 4.517-6.761 7.315 7.315 0 0 0-7.318-7.318zm0 12.727a5.402 5.402 0 0 1-4.997-3.34 5.41 5.41 0 1 1 10.407-2.07 5.421 5.421 0 0 1-5.409 5.409zm7-21h-14A8.592 8.592 0 0 0 0 8.591v14a8.594 8.594 0 0 0 8.591 8.591h14a8.594 8.594 0 0 0 8.591-8.591v-14A8.592 8.592 0 0 0 22.591 0zm6.682 22.591a6.683 6.683 0 0 1-6.682 6.682h-14a6.683 6.683 0 0 1-6.682-6.682v-14a6.683 6.683 0 0 1 6.682-6.682h14a6.683 6.683 0 0 1 6.682 6.682v14zM25.455 7.318a1.59 1.59 0 1 1-3.18 0 1.59 1.59 0 0 1 3.18.001z"/>
    </symbol>
    <symbol id="icon-logo" viewBox="0 0 64 32">
      <path d="M.587 0H5.73c1.212 0 2.145.091 2.796.274.665.169 1.134.45 1.408.841.274.378.411.913.411 1.604v1.564c0 .352-.143.684-.43.997-.274.313-.6.528-.978.645v.098c.495.052.945.267 1.349.645.417.365.626.776.626 1.232v1.956c0 1.03-.411 1.76-1.232 2.19s-2.092.645-3.813.645H.587V-.001zM5.73 5.162c.482 0 .841-.039 1.076-.117s.391-.202.469-.372c.091-.183.137-.443.137-.782v-.626c0-.3-.039-.521-.117-.665-.078-.156-.241-.267-.489-.332-.235-.065-.613-.098-1.134-.098H3.638v2.992H5.73zm.078 5.359c.743 0 1.271-.085 1.584-.254s.469-.443.469-.821V8.429c0-.469-.124-.802-.372-.997-.235-.196-.658-.293-1.271-.293H3.637v3.383h2.171zm11.827 2.366c-3.351 0-5.026-1.023-5.026-3.07V6.414c0-1.186.378-2.047 1.134-2.581.769-.534 1.949-.802 3.54-.802 1.499 0 2.594.261 3.285.782.704.508 1.056 1.375 1.056 2.601v2.308h-6.14v.86c0 .548.196.939.587 1.173s1.095.352 2.112.352c.939 0 1.995-.137 3.168-.411v1.819c-1.16.248-2.399.372-3.716.372zm1.271-5.789V5.729a.767.767 0 0 0-.391-.704c-.248-.156-.671-.235-1.271-.235-.691 0-1.154.078-1.388.235a.807.807 0 0 0-.372.704v1.369h3.422zm7.579 5.789c-.887 0-1.551-.078-1.995-.235a1.605 1.605 0 0 1-.919-.88c-.169-.43-.254-1.069-.254-1.916 0-.756.091-1.349.274-1.78a1.76 1.76 0 0 1 .919-.919c.43-.196 1.017-.293 1.76-.293h3.207v-.645c0-.404-.059-.704-.176-.9-.104-.196-.306-.332-.606-.411-.287-.078-.724-.117-1.31-.117-.808 0-1.916.078-3.324.235V3.227c1.03-.13 2.236-.196 3.618-.196 1.212 0 2.145.091 2.796.274.665.183 1.141.495 1.428.939s.43 1.089.43 1.936v6.512h-2.796v-.86a1.848 1.848 0 0 1-.9.802c-.378.169-1.095.254-2.151.254zm1.115-1.78c.574 0 .984-.02 1.232-.059.183-.026.306-.065.372-.117a.584.584 0 0 0 .196-.254c.052-.091.078-.228.078-.411V8.428h-1.956c-.443 0-.756.033-.939.098a.53.53 0 0 0-.372.352c-.065.169-.098.476-.098.919 0 .43.033.73.098.9s.189.28.372.332c.196.052.535.078 1.017.078zm10.53 1.78c-1.212 0-2.066-.215-2.562-.645-.482-.443-.724-1.134-.724-2.073V3.227h2.855v6.551c0 .365.033.639.098.821a.712.712 0 0 0 .43.391c.222.078.554.117.997.117.561 0 .971-.033 1.232-.098.261-.078.437-.209.528-.391s.137-.463.137-.841V3.226h2.855v9.465H41.16v-1.154c-.209.9-1.219 1.349-3.031 1.349zm13.077 0c-.482 0-.887-.02-1.212-.059s-.652-.117-.978-.235a2.468 2.468 0 0 1-.9-.489c-.222-.209-.404-.495-.548-.86a3.414 3.414 0 0 1-.235-1.31V4.986h-1.916v-1.76h1.916V.488h2.855v2.738h2.601v1.76h-2.601v4.459c0 .456.039.802.117 1.036a.827.827 0 0 0 .45.489c.222.091.561.137 1.017.137.182 0 .521-.033 1.017-.098v1.78c-.613.065-1.141.098-1.584.098zm5.91-.274-3.774-9.387h3.109l2.132 6.688 1.936-6.688h2.953l-5.182 13.532h-2.894l1.721-4.146zM0 29.5l6.61-8.663H.196v-2.171h10.169v1.838l-6.61 8.663h6.727v2.19H0v-1.858zm16.98 2.054c-.587 0-1.069-.02-1.447-.059s-.782-.117-1.212-.235c-.469-.13-.847-.313-1.134-.548-.287-.248-.528-.593-.724-1.036-.196-.43-.293-.952-.293-1.564v-2.796c0-.626.098-1.173.293-1.643s.45-.834.763-1.095c.274-.222.632-.404 1.076-.548.456-.156.9-.254 1.33-.293.495-.026.945-.039 1.349-.039.6 0 1.076.02 1.428.059a5.45 5.45 0 0 1 1.193.235c.469.143.847.339 1.134.587.3.248.554.6.763 1.056.196.469.293 1.03.293 1.682v2.796c0 .587-.098 1.102-.293 1.545-.183.443-.424.789-.724 1.036-.261.222-.619.404-1.076.548-.443.13-.88.215-1.31.254-.391.039-.86.059-1.408.059zm0-1.78c.535 0 .939-.039 1.212-.117.274-.091.463-.228.567-.411.117-.183.176-.45.176-.802v-3.579c0-.521-.137-.887-.411-1.095s-.789-.313-1.545-.313c-.756 0-1.271.104-1.545.313s-.411.574-.411 1.095v3.579c0 .352.052.619.156.802.117.183.313.319.587.411.274.078.678.117 1.212.117zm7.036-7.881h2.816v1.154c.222-.9 1.232-1.349 3.031-1.349 1.212 0 2.06.222 2.542.665.495.43.743 1.115.743 2.053v6.942h-2.855v-6.571c0-.365-.039-.639-.117-.821-.065-.183-.209-.313-.43-.391-.209-.078-.535-.117-.978-.117-.561 0-.971.039-1.232.117-.261.065-.437.189-.528.372s-.137.463-.137.841v6.571h-2.855v-9.465zm16.382 9.661c-3.35 0-5.026-1.023-5.026-3.07v-3.403c0-1.186.378-2.047 1.134-2.581.769-.535 1.949-.802 3.54-.802 1.499 0 2.594.261 3.285.782.704.508 1.056 1.375 1.056 2.601v2.308h-6.14v.86c0 .548.196.939.587 1.173s1.095.352 2.112.352c.939 0 1.995-.137 3.168-.411v1.819c-1.16.248-2.399.372-3.716.372zm1.272-5.789v-1.369a.767.767 0 0 0-.391-.704c-.248-.156-.671-.235-1.271-.235-.691 0-1.154.078-1.388.235a.806.806 0 0 0-.372.704v1.369h3.422z"/>
    </symbol>
    <symbol id="icon-medicine_cosmetic_icon" viewBox="0 0 40 32">
      <path d="M12.337 10.242H-.173a.68.68 0 0 0-.695.667v4.001a.68.68 0 0 0 .695.667h.695v15.337a.68.68 0 0 0 .695.667h9.73a.68.68 0 0 0 .695-.667V15.577h.695a.68.68 0 0 0 .695-.667v-4.001a.68.68 0 0 0-.695-.667zm-7.645 12.67v-1.334h4.17v-1.334h-4.17V18.91h5.56v8.669h-5.56v-3.334h1.39v-1.334h-1.39zm5.56-5.334H3.997a.68.68 0 0 0-.695.667v10.002a.68.68 0 0 0 .695.667h6.255v1.334h-8.34v-14.67h8.34v2zm1.39-3.335H.522v-2.667h11.12v2.667zm9.904-3.876V5.492a.69.69 0 0 0-.695-.687h-.695V1.372h1.39V-.001h-7.645v1.373h4.865v3.433h-.695a.69.69 0 0 0-.695.687v4.875c-1.584.319-2.78 1.705-2.78 3.363v17.163c0 .38.311.687.695.687h8.34a.69.69 0 0 0 .695-.687V13.73c0-1.657-1.196-3.044-2.78-3.363zm-2.78-4.188h1.39v4.119h-1.39V6.179zm-.695 5.492h2.78c1.15 0 2.085.924 2.085 2.06v.687h-6.95v-.687c0-1.136.936-2.06 2.085-2.06zm4.865 15.791h-6.95v-1.373h2.78v-1.373h-2.78v-8.925h6.95v11.671zm-6.95 2.746v-1.373h6.95v1.373h-6.95zM39.313 9.389H27.584a.662.662 0 0 0-.652.672v20.847c0 .372.291.672.652.672h11.729c.36 0 .652-.301.652-.672V10.061a.661.661 0 0 0-.652-.672zm-.652 20.847H28.236V10.734h10.425v19.502z"/>
      <path d="M9.557 23.045H7.819v.854h1.738v-.854zm12.163 1.708h-1.738v1.707h1.738v-1.707zm-2.172-1.707c1.677 0 3.041-1.34 3.041-2.987s-1.364-2.987-3.041-2.987c-1.677 0-3.041 1.34-3.041 2.987s1.364 2.987 3.041 2.987zm0-4.482c.838 0 1.52.67 1.52 1.494s-.682 1.494-1.52 1.494-1.52-.67-1.52-1.494.682-1.494 1.52-1.494zm12.271-2.347h3.258c1.258 0 2.281-.957 2.281-2.134s-1.023-2.134-2.281-2.134h-3.258c-1.258 0-2.28.957-2.28 2.134s1.023 2.134 2.28 2.134zm4.235-2.134c0 .504-.438.915-.977.915H34.1v-1.829h.977c.539 0 .977.41.977.915zm-4.235-.914h.977v1.829h-.977c-.539 0-.977-.41-.977-.915s.439-.915.977-.915zm0 9.876h3.258c1.258 0 2.281-1.149 2.281-2.561s-1.023-2.561-2.281-2.561h-3.258c-1.258 0-2.28 1.149-2.28 2.561s1.023 2.561 2.28 2.561zm4.235-2.56c0 .605-.438 1.097-.977 1.097H34.1v-2.195h.977c.539 0 .977.492.977 1.097zm-4.235-1.098h.977v2.195h-.977c-.539 0-.977-.492-.977-1.097s.439-1.097.977-1.097zm0 9.633h3.258c1.258 0 2.281-1.149 2.281-2.561s-1.023-2.561-2.281-2.561h-3.258c-1.258 0-2.28 1.149-2.28 2.561s1.023 2.561 2.28 2.561zm4.235-2.56c0 .605-.438 1.097-.977 1.097H34.1v-2.195h.977c.539 0 .977.492.977 1.097zm-4.235-1.098h.977v2.195h-.977c-.539 0-.977-.492-.977-1.097s.439-1.097.977-1.097z"/>
    </symbol>
    <symbol id="icon-telephone_icon" viewBox="0 0 28 32">
      <path d="m26.209 23.222-.182-.227c-1.441-1.821-2.645-2.769-3.678-2.894-.893-.122-1.757.496-2.675 1.131l-.981.613a2.205 2.205 0 0 1-.343.139c-.574.162-2.023.258-2.843-.493-.955-.874-2.436-2.472-3.588-3.87-1.1-1.446-2.31-3.249-2.941-4.385-.533-.962-.087-2.307.211-2.806.059-.098.136-.195.221-.29l.865-.799c.013-.013.018-.028.029-.039.008-.008.022-.006.032-.013.781-.659 1.589-1.338 1.7-2.211.13-1.025-.507-2.411-1.95-4.231L9.91 2.62C9.017 1.475 7.666-.257 5.725.029 4.962.142 4.28.403 3.577.844c-.007.004-.011.013-.017.017s-.013.004-.018.008l-.979.725c-.01.006-.015.018-.025.027-.007.007-.018.008-.027.015-.113.095-.227.193-.339.294-.993.885-3.142 3.454-1.676 8.205.946 3.069 2.898 6.65 5.657 10.377l-.027.022 1.522 1.896.013-.01c2.992 3.539 6.037 6.275 8.827 7.931 1.862 1.106 3.489 1.471 4.827 1.471 1.761 0 3.023-.633 3.655-1.044l.398-.266c.045-.031.077-.074.109-.113l.867-.652c.01-.008.015-.02.025-.028.004-.004.011-.003.017-.007.616-.563 1.043-1.152 1.34-1.851.769-1.791-.608-3.506-1.518-4.641zm.489 4.202c-.231.543-.568 1.005-1.056 1.453l-1.289.97c-1.168.759-3.664 1.697-7.29-.456-2.79-1.656-5.862-4.456-8.884-8.098l-.818-1.033c-2.846-3.774-4.848-7.389-5.793-10.452-1.228-3.983.319-6.119 1.355-7.042.105-.095.21-.183.314-.272l.004-.004.939-.696c.571-.361 1.1-.563 1.709-.655C7.19.943 8.248 2.315 9.025 3.312l.182.231c1.613 2.034 1.768 3.002 1.718 3.396-.056.438-.722 1-1.31 1.494l-.083.07-.007.01-.013.007-.895.827c-.006.006-.008.013-.014.02s-.017.01-.022.017a3.058 3.058 0 0 0-.354.472c-.503.841-.977 2.58-.228 3.926.654 1.176 1.898 3.034 3.042 4.535 1.196 1.45 2.72 3.097 3.709 4 .741.676 1.771.903 2.663.903.477 0 .916-.066 1.247-.16.175-.05.356-.123.542-.214.011-.006.017-.015.028-.022.006-.003.014-.001.02-.006l1.039-.65c.034-.022.056-.052.084-.08l.013.014c.64-.444 1.369-.965 1.826-.889.405.049 1.323.438 2.939 2.478l.186.234c.787.981 1.865 2.325 1.362 3.5z"/>
    </symbol>
  </defs>
</svg>
